<mxfile host="app.diagrams.net" modified="2023-09-13T10:34:59.664Z" agent="Mozilla/5.0 (Windows NT 10.0; Win64; x64) AppleWebKit/537.36 (KHTML, like Gecko) Chrome/116.0.0.0 Safari/537.36 Edg/116.0.1938.76" etag="aKX8yln4mWhcgOQcy3Xo" version="21.7.5" type="github">
  <diagram name="Trang-1" id="mdwyrkG4SpRa5LHEE1t_">
    <mxGraphModel dx="1426" dy="785" grid="1" gridSize="10" guides="1" tooltips="1" connect="1" arrows="1" fold="1" page="1" pageScale="1" pageWidth="827" pageHeight="1169" math="0" shadow="0">
      <root>
        <mxCell id="0" />
        <mxCell id="1" parent="0" />
        <mxCell id="kZkNuYrnI-dul1FJbc1h-2" value="START" style="ellipse;whiteSpace=wrap;html=1;" vertex="1" parent="1">
          <mxGeometry x="350" y="80" width="120" height="80" as="geometry" />
        </mxCell>
        <mxCell id="kZkNuYrnI-dul1FJbc1h-5" value="" style="html=1;shadow=0;dashed=0;align=center;verticalAlign=middle;shape=mxgraph.arrows2.arrow;dy=0.6;dx=40;direction=south;notch=0;" vertex="1" parent="1">
          <mxGeometry x="375" y="160" width="70" height="100" as="geometry" />
        </mxCell>
        <mxCell id="kZkNuYrnI-dul1FJbc1h-6" value="INPUT TOÁN LÝ HÓA" style="shape=parallelogram;perimeter=parallelogramPerimeter;whiteSpace=wrap;html=1;fixedSize=1;" vertex="1" parent="1">
          <mxGeometry x="295" y="260" width="230" height="60" as="geometry" />
        </mxCell>
        <mxCell id="kZkNuYrnI-dul1FJbc1h-7" value="" style="html=1;shadow=0;dashed=0;align=center;verticalAlign=middle;shape=mxgraph.arrows2.arrow;dy=0.6;dx=40;direction=south;notch=0;" vertex="1" parent="1">
          <mxGeometry x="379" y="320" width="70" height="100" as="geometry" />
        </mxCell>
        <mxCell id="kZkNuYrnI-dul1FJbc1h-8" value="ĐIÊM TB (TOÁN +LÝ +HÓA)/3" style="rounded=0;whiteSpace=wrap;html=1;" vertex="1" parent="1">
          <mxGeometry x="295" y="420" width="230" height="60" as="geometry" />
        </mxCell>
        <mxCell id="kZkNuYrnI-dul1FJbc1h-9" value="" style="html=1;shadow=0;dashed=0;align=center;verticalAlign=middle;shape=mxgraph.arrows2.arrow;dy=0.6;dx=40;direction=south;notch=0;" vertex="1" parent="1">
          <mxGeometry x="379" y="480" width="70" height="100" as="geometry" />
        </mxCell>
        <mxCell id="kZkNuYrnI-dul1FJbc1h-10" value="DISPLAY ĐIỂM TB" style="shape=parallelogram;perimeter=parallelogramPerimeter;whiteSpace=wrap;html=1;fixedSize=1;" vertex="1" parent="1">
          <mxGeometry x="296" y="580" width="235" height="60" as="geometry" />
        </mxCell>
        <mxCell id="kZkNuYrnI-dul1FJbc1h-11" value="END" style="ellipse;whiteSpace=wrap;html=1;" vertex="1" parent="1">
          <mxGeometry x="354" y="740" width="120" height="80" as="geometry" />
        </mxCell>
        <mxCell id="kZkNuYrnI-dul1FJbc1h-13" value="" style="html=1;shadow=0;dashed=0;align=center;verticalAlign=middle;shape=mxgraph.arrows2.arrow;dy=0.6;dx=40;direction=south;notch=0;" vertex="1" parent="1">
          <mxGeometry x="379" y="640" width="70" height="100" as="geometry" />
        </mxCell>
      </root>
    </mxGraphModel>
  </diagram>
</mxfile>
